<svg width="1000" height="500" viewBox="0 0 1000 500" fill="none" xmlns="http://www.w3.org/2000/svg">
<g clip-path="url(#clip0)">
<rect width="1000" height="500" fill="white"/>
<path d="M422.35 247.832C424.846 247.832 426.862 248.696 428.398 250.424C430.126 252.152 430.99 254.264 430.99 256.76V386.36C430.99 388.856 430.126 390.968 428.398 392.696C426.862 394.232 424.846 395 422.35 395C419.854 395 417.742 394.232 416.014 392.696C414.478 390.968 413.71 388.856 413.71 386.36V367.064C408.91 375.704 401.71 383 392.11 388.952C382.51 394.904 372.046 397.88 360.718 397.88C347.854 397.88 336.238 394.52 325.87 387.8C315.694 381.08 307.63 371.864 301.678 360.152C295.918 348.44 293.038 335.288 293.038 320.696C293.038 306.104 296.014 293.048 301.966 281.528C307.918 269.816 315.982 260.696 326.158 254.168C336.526 247.64 347.95 244.376 360.43 244.376C371.95 244.376 382.51 247.16 392.11 252.728C401.71 258.296 408.91 265.592 413.71 274.616V256.76C413.71 254.264 414.478 252.152 416.014 250.424C417.742 248.696 419.854 247.832 422.35 247.832ZM362.446 381.752C372.43 381.752 381.358 379.16 389.23 373.976C397.294 368.6 403.534 361.304 407.95 352.088C412.558 342.68 414.862 332.216 414.862 320.696C414.862 309.56 412.558 299.384 407.95 290.168C403.534 280.952 397.294 273.752 389.23 268.568C381.358 263.192 372.43 260.504 362.446 260.504C352.462 260.504 343.438 263.096 335.374 268.28C327.502 273.464 321.262 280.664 316.654 289.88C312.238 298.904 310.03 309.176 310.03 320.696C310.03 332.216 312.238 342.68 316.654 352.088C321.07 361.304 327.214 368.6 335.086 373.976C343.15 379.16 352.27 381.752 362.446 381.752ZM546.064 244.376C558.736 244.376 570.256 247.64 580.624 254.168C590.992 260.696 599.056 269.816 604.816 281.528C610.768 293.048 613.744 306.104 613.744 320.696C613.744 335.096 610.768 348.248 604.816 360.152C599.056 371.864 590.992 381.08 580.624 387.8C570.448 394.52 559.024 397.88 546.352 397.88C535.408 397.88 525.232 395.192 515.824 389.816C506.608 384.248 499.12 376.952 493.36 367.928V386.936C493.36 389.432 492.496 391.544 490.768 393.272C489.232 395 487.216 395.864 484.72 395.864C482.224 395.864 480.112 395 478.384 393.272C476.848 391.544 476.08 389.432 476.08 386.936V190.808C476.08 188.312 476.848 186.296 478.384 184.76C480.112 183.032 482.224 182.168 484.72 182.168C487.216 182.168 489.232 183.032 490.768 184.76C492.496 186.296 493.36 188.312 493.36 190.808V275.768C498.544 266.36 505.84 258.776 515.248 253.016C524.656 247.256 534.928 244.376 546.064 244.376ZM544.624 381.752C554.608 381.752 563.536 379.064 571.408 373.688C579.472 368.312 585.712 361.016 590.128 351.8C594.736 342.392 597.04 332.024 597.04 320.696C597.04 309.176 594.736 298.904 590.128 289.88C585.712 280.664 579.472 273.464 571.408 268.28C563.536 263.096 554.608 260.504 544.624 260.504C534.448 260.504 525.328 263.096 517.264 268.28C509.2 273.272 502.96 280.376 498.544 289.592C494.128 298.808 491.92 309.176 491.92 320.696C491.92 332.216 494.128 342.68 498.544 352.088C503.152 361.304 509.392 368.6 517.264 373.976C525.328 379.16 534.448 381.752 544.624 381.752ZM773.746 312.92C773.746 315.224 772.882 317.24 771.154 318.968C769.426 320.504 767.41 321.272 765.106 321.272H656.242C656.242 332.792 658.546 343.16 663.154 352.376C667.954 361.4 674.674 368.6 683.314 373.976C692.146 379.16 702.514 381.752 714.418 381.752C723.634 381.752 731.89 379.832 739.186 375.992C746.482 372.152 752.338 367.256 756.754 361.304C758.866 359.576 760.882 358.712 762.802 358.712C764.722 358.712 766.45 359.48 767.986 361.016C769.522 362.552 770.29 364.28 770.29 366.2C770.29 368.312 769.33 370.328 767.41 372.248C761.266 379.736 753.49 385.88 744.082 390.68C734.866 395.48 725.074 397.88 714.706 397.88C699.922 397.88 686.866 394.712 675.538 388.376C664.21 382.04 655.378 373.208 649.042 361.88C642.706 350.36 639.538 337.112 639.538 322.136C639.538 306.392 642.61 292.664 648.754 280.952C655.09 269.048 663.442 260.024 673.81 253.88C684.178 247.544 695.218 244.376 706.93 244.376C718.45 244.376 729.202 247.064 739.186 252.44C749.362 257.816 757.618 265.688 763.954 276.056C770.29 286.424 773.554 298.712 773.746 312.92ZM706.93 261.08C695.794 261.08 685.426 264.92 675.826 272.6C666.418 280.28 660.37 291.32 657.682 305.72H755.89V303.416C754.93 294.776 752.05 287.288 747.25 280.952C742.45 274.424 736.402 269.528 729.106 266.264C722.002 262.808 714.61 261.08 706.93 261.08ZM878.193 244.376C882.033 244.376 885.489 245.144 888.561 246.68C891.633 248.216 893.169 250.52 893.169 253.592C893.169 256.28 892.401 258.488 890.865 260.216C889.329 261.752 887.505 262.52 885.393 262.52C884.433 262.52 882.513 262.04 879.633 261.08C876.945 260.12 874.353 259.64 871.857 259.64C864.753 259.64 857.649 262.424 850.545 267.992C843.633 273.368 837.873 280.376 833.265 289.016C828.849 297.656 826.641 306.392 826.641 315.224V386.36C826.641 388.856 825.777 390.968 824.049 392.696C822.513 394.232 820.497 395 818.001 395C815.505 395 813.393 394.232 811.665 392.696C810.129 390.968 809.361 388.856 809.361 386.36V257.336C809.361 254.84 810.129 252.824 811.665 251.288C813.393 249.56 815.505 248.696 818.001 248.696C820.497 248.696 822.513 249.56 824.049 251.288C825.777 252.824 826.641 254.84 826.641 257.336V282.68C831.057 271.736 837.681 262.712 846.513 255.608C855.537 248.312 866.097 244.568 878.193 244.376Z" fill="#7F7F7E"/>
<path fill-rule="evenodd" clip-rule="evenodd" d="M160.212 164.627L77 360.967C97.778 381.765 126.475 394.627 158.171 394.627C221.589 394.627 273 343.135 273 279.618C273 216.783 222.689 165.717 160.212 164.627Z" fill="#A6A6A6"/>
<path fill-rule="evenodd" clip-rule="evenodd" d="M200.86 290.99L283.864 94.658C263.138 73.8616 234.512 61 202.895 61C139.635 61 88.3523 112.489 88.3523 176.004C88.3523 238.836 138.539 289.9 200.86 290.99Z" fill="#7F7F7E" stroke="white" stroke-width="10"/>
</g>
<defs>
<clipPath id="clip0">
<rect width="1000" height="500" fill="white"/>
</clipPath>
</defs>
</svg>
